<svg viewBox="58 91 284 342" xmlns="http://www.w3.org/2000/svg" overflow="hidden" style="overflow:hidden;" xmlns:c2pa="http://c2pa.org/manifest"><metadata><c2pa:manifest>AAAWgmp1bWIAAAAeanVtZGMycGEAEQAQgAAAqgA4m3EDYzJwYQAAABZcanVtYgAAAEdqdW1kYzJtYQARABCAAACqADibcQN1cm46YzJwYTpiNWMyNmQ1ZS00YzhjLTRhZDQtOWI4Yi02MDFhOTg5MzFhYzYAAAADl2p1bWIAAAApanVtZGMyYXMAEQAQgAAAqgA4m3EDYzJwYS5hc3NlcnRpb25zAAAAALxqdW1iAAAARGp1bWRjYm9yABEAEIAAAKoAOJtxE2MycGEuaW5ncmVkaWVudC52MwAAAAAYYzJzaEduDN6oHV3zpLQmBI6TbXYAAABwY2JvcqNpZGM6Zm9ybWF0bWltYWdlL3N2Zyt4bWxqaW5zdGFuY2VJRHgseG1wOmlpZDo5Yjk5MjZlNS1hZThhLTQ0ZWQtYjQwYi05ZmQ1ZGU0ZjAxNWJscmVsYXRpb25zaGlwaHBhcmVudE9mAAAB4mp1bWIAAABBanVtZGNib3IAEQAQgAAAqgA4m3ETYzJwYS5hY3Rpb25zLnYyAAAAABhjMnNoXB8mpaaPDmzFwNK3BNJQkgAAAZljYm9yomdhY3Rpb25zgqJmYWN0aW9ua2MycGEub3BlbmVkanBhcmFtZXRlcnOha2luZ3JlZGllbnRzgaJjdXJseC1zZWxmI2p1bWJmPWMycGEuYXNzZXJ0aW9ucy9jMnBhLmluZ3JlZGllbnQudjNkaGFzaFggPTz6DjfYXOohRB+j3Hz8ZmczUOZ8C5ZNJwZ5T5xWpmKkZmFjdGlvbngdY29tLmFudGhyb3BpYy5jbGF1ZGUucHJvdmlkZWRqcGFyYW1ldGVyc6F4H2NvbS5hbnRocm9waWMub3JpZ2luLWNvbmZpZGVuY2VndW5rbm93bmtkZXNjcmlwdGlvbnhmQ2xhdWRlIHByb3ZpZGVkIHRoaXMgZmlsZSBhdCB0aGUgcmVxdWVzdCBvZiBhIHVzZXIgYW5kIG1heSBoYXZlIGNyZWF0ZWQgb3IgbW9kaWZpZWQgdGhlIGZpbGUgY29udGVudHMubXNvZnR3YXJlQWdlbnShZG5hbWVmQ2xhdWRlcmFsbEFjdGlvbnNJbmNsdWRlZPUAAADIanVtYgAAAEBqdW1kY2JvcgARABCAAACqADibcRNjMnBhLmhhc2guZGF0YQAAAAAYYzJzaFVY6qJems42OsLU/QJjUFAAAACAY2JvcqVjYWxnZnNoYTI1NmNwYWRNAAAAAAAAAAAAAAAAAGRoYXNoWCDEov1gJmNCly9MF1SUJWt3SwydkkESV1eQnzrW2ud7SWRuYW1lbmp1bWJmIG1hbmlmZXN0amV4Y2x1c2lvbnOBomVzdGFydBiqZmxlbmd0aBkeBAAAAj5qdW1iAAAAJ2p1bWRjMmNsABEAEIAAAKoAOJtxA2MycGEuY2xhaW0udjIAAAACD2Nib3KlY2FsZ2ZzaGEyNTZpc2lnbmF0dXJleE1zZWxmI2p1bWJmPS9jMnBhL3VybjpjMnBhOmI1YzI2ZDVlLTRjOGMtNGFkNC05YjhiLTYwMWE5ODkzMWFjNi9jMnBhLnNpZ25hdHVyZWppbnN0YW5jZUlEeCx4bXA6aWlkOjUyYzY0YzIyLTMyMWUtNDkxMC1hZDFiLWNlZGI3YzRmNzMyY3JjcmVhdGVkX2Fzc2VydGlvbnODomN1cmx4LXNlbGYjanVtYmY9YzJwYS5hc3NlcnRpb25zL2MycGEuaW5ncmVkaWVudC52M2RoYXNoWCA9PPoON9hc6iFEH6PcfPxmZzNQ5nwLlk0nBnlPnFamYqJjdXJseCpzZWxmI2p1bWJmPWMycGEuYXNzZXJ0aW9ucy9jMnBhLmFjdGlvbnMudjJkaGFzaFggHLdr/CwWBVXGV7PL07mlgN1m/9oIfP4KPFxzyn4iRn6iY3VybHgpc2VsZiNqdW1iZj1jMnBhLmFzc2VydGlvbnMvYzJwYS5oYXNoLmRhdGFkaGFzaFggxSe0d+fDNjgZpQtz8zc10wWs1VIbIzRo65tiLCzC0yB0Y2xhaW1fZ2VuZXJhdG9yX2luZm+jZG5hbWVvQW50aHJvcGljIEZpbGVzZ3ZlcnNpb25lMS4wLjBrc3BlY1ZlcnNpb25lMi40LjAAABA4anVtYgAAAChqdW1kYzJjcwARABCAAACqADibcQNjMnBhLnNpZ25hdHVyZQAAABAIY2JvctKEWQISogEmGCFZAgowggIGMIIBjaADAgECAhRA5aAK7sI50L64g/oGQgU9Z1UTADAKBggqhkjOPQQDAzBJMRcwFQYDVQQKEw5BbnRocm9waWMsIFBCQzEuMCwGA1UEAxMlQW50aHJvcGljIENvbnRlbnQgQ3JlZGVudGlhbHMgUm9vdCBDQTAeFw0yNjA4MDcxODQzNTZaFw0yODA4MDYxOTQzNTZaMEQxFzAVBgNVBAoTDkFudGhyb3BpYywgUEJDMSkwJwYDVQQDEyBBbnRocm9waWMgQ2xhdWRlIENvbnRlbnQgU2lnbmluZzBZMBMGByqGSM49AgEGCCqGSM49AwEHA0IABJh6CmvLUBgFFNU0vUKlOVtE6djd17L5SuwX0LemFisBM3dkd/3cyjxFA3Qo5S46fX0/ihY0VZ7mfb9KF703t5OjWDBWMA4GA1UdDwEB/wQEAwIHgDAVBgNVHSUEDjAMBgorBgEEAYPoXgIBMAwGA1UdEwEB/wQCMAAwHwYDVR0jBBgwFoAUzlHiBIFOZFsj+OPEz5o+nMHXXMIwCgYIKoZIzj0EAwMDZwAwZAIwMXMdFJ4BetLLVY7ORuE9noqbbAZOZn/aArXyTwFAZfKrPzxF2vPoJNf1+UCdg1XGAjBwX1zd9WGqYkqmL5SFqw1QySjr1zJfpJM9+1rdDwSPLMOPOjKuiXjoU/pUUeG9RwmhY3BhZFkNngAAAAAAAAAAAAAAAAAAAAAAAAAAAAAAAAAAAAAAAAAAAAAAAAAAAAAAAAAAAAAAAAAAAAAAAAAAAAAAAAAAAAAAAAAAAAAAAAAAAAAAAAAAAAAAAAAAAAAAAAAAAAAAAAAAAAAAAAAAAAAAAAAAAAAAAAAAAAAAAAAAAAAAAAAAAAAAAAAAAAAAAAAAAAAAAAAAAAAAAAAAAAAAAAAAAAAAAAAAAAAAAAAAAAAAAAAAAAAAAAAAAAAAAAAAAAAAAAAAAAAAAAAAAAAAAAAAAAAAAAAAAAAAAAAAAAAAAAAAAAAAAAAAAAAAAAAAAAAAAAAAAAAAAAAAAAAAAAAAAAAAAAAAAAAAAAAAAAAAAAAAAAAAAAAAAAAAAAAAAAAAAAAAAAAAAAAAAAAAAAAAAAAAAAAAAAAAAAAAAAAAAAAAAAAAAAAAAAAAAAAAAAAAAAAAAAAAAAAAAAAAAAAAAAAAAAAAAAAAAAAAAAAAAAAAAAAAAAAAAAAAAAAAAAAAAAAAAAAAAAAAAAAAAAAAAAAAAAAAAAAAAAAAAAAAAAAAAAAAAAAAAAAAAAAAAAAAAAAAAAAAAAAAAAAAAAAAAAAAAAAAAAAAAAAAAAAAAAAAAAAAAAAAAAAAAAAAAAAAAAAAAAAAAAAAAAAAAAAAAAAAAAAAAAAAAAAAAAAAAAAAAAAAAAAAAAAAAAAAAAAAAAAAAAAAAAAAAAAAAAAAAAAAAAAAAAAAAAAAAAAAAAAAAAAAAAAAAAAAAAAAAAAAAAAAAAAAAAAAAAAAAAAAAAAAAAAAAAAAAAAAAAAAAAAAAAAAAAAAAAAAAAAAAAAAAAAAAAAAAAAAAAAAAAAAAAAAAAAAAAAAAAAAAAAAAAAAAAAAAAAAAAAAAAAAAAAAAAAAAAAAAAAAAAAAAAAAAAAAAAAAAAAAAAAAAAAAAAAAAAAAAAAAAAAAAAAAAAAAAAAAAAAAAAAAAAAAAAAAAAAAAAAAAAAAAAAAAAAAAAAAAAAAAAAAAAAAAAAAAAAAAAAAAAAAAAAAAAAAAAAAAAAAAAAAAAAAAAAAAAAAAAAAAAAAAAAAAAAAAAAAAAAAAAAAAAAAAAAAAAAAAAAAAAAAAAAAAAAAAAAAAAAAAAAAAAAAAAAAAAAAAAAAAAAAAAAAAAAAAAAAAAAAAAAAAAAAAAAAAAAAAAAAAAAAAAAAAAAAAAAAAAAAAAAAAAAAAAAAAAAAAAAAAAAAAAAAAAAAAAAAAAAAAAAAAAAAAAAAAAAAAAAAAAAAAAAAAAAAAAAAAAAAAAAAAAAAAAAAAAAAAAAAAAAAAAAAAAAAAAAAAAAAAAAAAAAAAAAAAAAAAAAAAAAAAAAAAAAAAAAAAAAAAAAAAAAAAAAAAAAAAAAAAAAAAAAAAAAAAAAAAAAAAAAAAAAAAAAAAAAAAAAAAAAAAAAAAAAAAAAAAAAAAAAAAAAAAAAAAAAAAAAAAAAAAAAAAAAAAAAAAAAAAAAAAAAAAAAAAAAAAAAAAAAAAAAAAAAAAAAAAAAAAAAAAAAAAAAAAAAAAAAAAAAAAAAAAAAAAAAAAAAAAAAAAAAAAAAAAAAAAAAAAAAAAAAAAAAAAAAAAAAAAAAAAAAAAAAAAAAAAAAAAAAAAAAAAAAAAAAAAAAAAAAAAAAAAAAAAAAAAAAAAAAAAAAAAAAAAAAAAAAAAAAAAAAAAAAAAAAAAAAAAAAAAAAAAAAAAAAAAAAAAAAAAAAAAAAAAAAAAAAAAAAAAAAAAAAAAAAAAAAAAAAAAAAAAAAAAAAAAAAAAAAAAAAAAAAAAAAAAAAAAAAAAAAAAAAAAAAAAAAAAAAAAAAAAAAAAAAAAAAAAAAAAAAAAAAAAAAAAAAAAAAAAAAAAAAAAAAAAAAAAAAAAAAAAAAAAAAAAAAAAAAAAAAAAAAAAAAAAAAAAAAAAAAAAAAAAAAAAAAAAAAAAAAAAAAAAAAAAAAAAAAAAAAAAAAAAAAAAAAAAAAAAAAAAAAAAAAAAAAAAAAAAAAAAAAAAAAAAAAAAAAAAAAAAAAAAAAAAAAAAAAAAAAAAAAAAAAAAAAAAAAAAAAAAAAAAAAAAAAAAAAAAAAAAAAAAAAAAAAAAAAAAAAAAAAAAAAAAAAAAAAAAAAAAAAAAAAAAAAAAAAAAAAAAAAAAAAAAAAAAAAAAAAAAAAAAAAAAAAAAAAAAAAAAAAAAAAAAAAAAAAAAAAAAAAAAAAAAAAAAAAAAAAAAAAAAAAAAAAAAAAAAAAAAAAAAAAAAAAAAAAAAAAAAAAAAAAAAAAAAAAAAAAAAAAAAAAAAAAAAAAAAAAAAAAAAAAAAAAAAAAAAAAAAAAAAAAAAAAAAAAAAAAAAAAAAAAAAAAAAAAAAAAAAAAAAAAAAAAAAAAAAAAAAAAAAAAAAAAAAAAAAAAAAAAAAAAAAAAAAAAAAAAAAAAAAAAAAAAAAAAAAAAAAAAAAAAAAAAAAAAAAAAAAAAAAAAAAAAAAAAAAAAAAAAAAAAAAAAAAAAAAAAAAAAAAAAAAAAAAAAAAAAAAAAAAAAAAAAAAAAAAAAAAAAAAAAAAAAAAAAAAAAAAAAAAAAAAAAAAAAAAAAAAAAAAAAAAAAAAAAAAAAAAAAAAAAAAAAAAAAAAAAAAAAAAAAAAAAAAAAAAAAAAAAAAAAAAAAAAAAAAAAAAAAAAAAAAAAAAAAAAAAAAAAAAAAAAAAAAAAAAAAAAAAAAAAAAAAAAAAAAAAAAAAAAAAAAAAAAAAAAAAAAAAAAAAAAAAAAAAAAAAAAAAAAAAAAAAAAAAAAAAAAAAAAAAAAAAAAAAAAAAAAAAAAAAAAAAAAAAAAAAAAAAAAAAAAAAAAAAAAAAAAAAAAAAAAAAAAAAAAAAAAAAAAAAAAAAAAAAAAAAAAAAAAAAAAAAAAAAAAAAAAAAAAAAAAAAAAAAAAAAAAAAAAAAAAAAAAAAAAAAAAAAAAAAAAAAAAAAAAAAAAAAAAAAAAAAAAAAAAAAAAAAAAAAAAAAAAAAAAAAAAAAAAAAAAAAAAAAAAAAAAAAAAAAAAAAAAAAAAAAAAAAAAAAAAAAAAAAAAAAAAAAAAAAAAAAAAAAAAAAAAAAAAAAAAAAAAAAAAAAAAAAAAAAAAAAAAAAAAAAAAAAAAAAAAAAAAAAAAAAAAAAAAAAAAAAAAAAAAAAAAAAAAAAAAAAAAAAAAAAAAAAAAAAAAAAAAAAAAAAAAAAAAAAAAAAAAAAAAAAAAAAAAAAAAAAAAAAAAAAAAAAAAAAAAAAAAAAAAAAAAAAAAAAAAAAAAAAAAAAAAAAAAAAAAAAAAAAAAAAAAAAAAAAAAAAAAAAAAAAAAAAAAAAAAAAAAAAAAAAAAAAAAAAAAAAAAAAAAAAAAAAAAAAAAAAAAAAAAAAAAAAAAAAAAAAAAAAAAAAAAAAAAAAAAAAAAAAAAAAAAAAAAAAAAAAAAAAAAAAAAAAAAAAAAAAAAAAAAAAAAAAAAAAAAAAAAAAAAAAAAAAAAAAAAAAAAAAAAAAAAAAAAAAAAAAAAAAAAAAAAAAAAAAAAAAAAAAAAAAAAAAAAAAAAAAAAAAAAAAAAAAAAAAAAAAAAAAAAAAAAAAAAAAAAAAAAAAAAAAAAAAAAAAAAAAAAAAAAAAAAAAAAAAAAAAAAAAAAAAAAAAAAAAAAAAAAAAAAAAAAAAAAAAAAAAAAAAAAAAAAAAAAAAAAAAAAAAAAAAAAAAAAAAAAAAAAAAAAAAAAAAAAAAAAAAAAAAAAAAAAAAAAAAAAAAAAAAAAAAAAAAAAAAAAAAAAAAAAAAAAAAAAAAAAAAAAAAAAAAAAAAAAAAAAAAAAAAAAAAAAAAAAAAAAAAAAAAAAAAAAAAAAAAAAAAAAAAAAAAAAAAAAAAAAAAAAAAAAAAAAAAAAAAAAAAAAAAAAAAAAAAAAAAAAAAAAAAAAAAAAAAAAAAAAAAAAAAAAAAAAAAAAAAAAAAAAAAAAAAAAAAAAAAAAAAAAAAAAAAAAAAAAAAAAAAAAAAAAAAAAAAAAAAAAAAAAAAAAAAAAAAAAAAAAAAAAAAAAAAAAAAAAAAAAAAAAAAAAAAAAAAAAAAAAAAAAAAAAAAAAAAAAAAAAAAAAAAAAAAAAAAAAAAAAAAAAAAAAAAAAAAAAAAAAAAAAAAAAAAAAAAAAAAAAAAAAAAAAAAAAAAAAAAAAAAAAAAAAAAAAAAAAAAAAAAAAAAAAAAAAAAAAAAAAAAAAAAAAAAAAAAAAAAAAAAAAAAAAAAAAAAAAAAAAAAAAAAAAAAAAAAAAAAAAAAAAAAAAAAAAAAAAAAAAAAAAAAAAAAAAAAAAAAAAAAAAAAAAAAAAAAAAAAAAAAAAAAAAAAAAAAAAAAAAAAAAAAAAAAAAAAAAAAAAAAAAAAAAAAAAAAAAAAAAAAAAAAAAAAAAAAAAAAAAAAAAAAAAAAAAAAAAAAAAAAAAAAAAAAAAAAAAAAAAAAAAAAAAAAAAAAAAAAAAAAAAAAAAAAAAAAAAAAAAAAAAAAAAAAAAAAAAAAAAAAAAAAAAAAAAAAAAAAAAAAAAAAAAAAAAAAAAAAAAAAAAAAAAAAAAAAAAAAAAAAAAAAAAAAAAAAAAAAAAAAAAAAAAAAAAAAAAAAAAAAAAAAAAAAAAAAAAAAAAAAAAPZYQAq7gX+fIt6WtMOsm0eL/94+f/acPZ3zBbSIedim4J4ha1MzO0mvFAGSxdRFOsMpyUjk1BtG8q+0GfMjOM1aL+Y=</c2pa:manifest></metadata>
<clipPath id="iconCrop"><rect x="58" y="91" width="284" height="342"/></clipPath>
<g clip-path="url(#iconCrop)">
<g transform="translate(0.000000,572.000000) scale(0.100000,-0.100000)"><path d="M1635 4570 c-49 -11 -101 -19 -115 -20 -14 0 -34 -6 -45 -13 -11 -7
-47 -23 -80 -36 -71 -28 -202 -113 -271 -175 -82 -73 -234 -287 -234 -329 0
-7 -7 -25 -16 -42 -9 -16 -27 -73 -41 -125 -45 -174 -29 -485 31 -615 85 -182
109 -223 174 -301 96 -114 248 -224 384 -278 187 -74 150 -68 528 -73 273 -3
349 -1 362 9 16 12 16 21 7 88 -6 41 -16 82 -23 90 -6 8 -18 28 -26 45 -8 16
-31 46 -51 66 l-36 36 -269 5 c-295 5 -265 -1 -424 76 -81 39 -206 159 -268
257 -31 51 -60 127 -67 176 -3 30 -11 80 -17 111 -18 95 12 250 70 361 52 100
158 217 239 263 26 15 55 33 63 39 8 6 47 23 85 36 69 24 77 24 410 24 328 0
342 -1 402 -23 121 -43 244 -153 287 -255 l15 -37 163 2 163 3 -3 40 c-3 46
-39 152 -59 176 -7 8 -13 20 -13 26 0 17 -94 135 -146 183 -108 101 -258 176
-409 206 -72 14 -151 18 -385 20 -259 3 -306 1 -385 -16z M5685 4072 c-90 -31
-121 -143 -63 -228 28 -41 78 -58 143 -48 35 5 53 15 81 46 35 39 36 43 32
100 -4 51 -9 64 -39 94 -28 28 -44 35 -84 39 -28 2 -59 1 -70 -3z M7850 4063
c-23 -12 -43 -34 -58 -65 -31 -61 -23 -107 28 -162 35 -37 40 -39 98 -40 51
-1 65 3 88 24 15 14 35 44 46 67 18 41 18 43 0 94 -10 29 -29 61 -43 71 -37
28 -116 33 -159 11z M11440 3604 c-41 -7 -91 -20 -110 -28 -19 -8 -46 -18 -60
-22 -13 -4 -36 -14 -50 -24 -14 -9 -44 -29 -67 -44 -84 -56 -176 -158 -221
-247 -71 -142 -84 -195 -85 -349 -1 -179 27 -279 115 -415 50 -78 180 -188
283 -242 99 -52 172 -67 320 -68 119 0 151 4 215 23 207 64 352 186 448 379
68 134 89 319 56 487 -14 72 -29 111 -83 214 -22 42 -81 113 -131 158 -53 47
-84 68 -165 111 -83 44 -247 84 -338 82 -29 -1 -86 -7 -127 -15z m255 -263
c33 -11 81 -31 107 -46 57 -32 157 -138 186 -197 20 -43 52 -167 52 -206 0
-45 -42 -193 -67 -238 -28 -51 -118 -143 -156 -162 -90 -43 -124 -55 -184 -63
-155 -23 -274 19 -389 136 -39 39 -84 96 -100 126 -28 52 -29 59 -29 194 0
134 1 143 29 199 31 64 136 177 196 211 115 64 244 81 355 46z M4375 3593
c-103 -24 -213 -95 -259 -168 -56 -86 -66 -122 -66 -237 0 -96 3 -116 26 -166
34 -73 75 -125 138 -171 97 -71 121 -75 486 -81 l325 -5 30 -28 c52 -50 65
-77 65 -141 0 -53 -4 -63 -37 -104 -20 -24 -51 -50 -68 -58 -25 -10 -135 -14
-479 -17 -246 -3 -449 -7 -453 -11 -7 -7 -5 -215 3 -228 3 -4 215 -8 471 -8
l466 0 66 26 c159 64 245 167 272 327 15 91 2 197 -33 266 -27 56 -115 144
-171 172 -78 41 -146 48 -433 49 -223 0 -279 3 -320 16 -60 20 -70 28 -100 76
-49 77 -20 183 62 234 l39 23 447 1 c303 0 449 3 453 11 6 8 10 166 6 217 -1
9 -99 12 -458 11 -252 -1 -467 -3 -478 -6z M5612 3587 c-9 -10 -11 -204 -9
-713 l2 -699 133 -3 132 -3 -2 713 -3 713 -121 3 c-93 2 -124 -1 -132 -11z
M6074 3585 c-3 -8 8 -42 25 -76 17 -34 31 -66 31 -70 0 -5 15 -41 34 -81 19
-40 38 -85 41 -100 4 -14 22 -57 41 -94 19 -37 34 -72 34 -77 0 -6 17 -46 39
-91 21 -44 42 -95 45 -113 4 -17 13 -37 21 -43 8 -6 16 -24 20 -39 7 -32 43
-122 68 -168 9 -18 17 -37 17 -43 0 -6 16 -42 35 -81 19 -39 35 -76 35 -83 0
-6 11 -33 25 -61 13 -27 25 -57 25 -65 0 -9 5 -21 10 -26 6 -6 16 -30 23 -55
l13 -44 151 -3 150 -3 17 35 c9 19 16 39 16 44 0 6 11 32 25 58 14 26 25 52
25 59 0 7 16 42 35 79 19 37 35 73 35 79 0 7 7 25 16 42 8 16 27 59 40 95 14
36 37 90 51 120 14 30 29 64 33 75 5 11 22 50 39 86 17 36 31 69 31 72 0 4 18
45 40 92 22 47 40 89 40 94 0 11 57 144 117 270 24 51 43 101 41 110 -3 14
-21 16 -132 16 -104 0 -130 -3 -137 -15 -23 -43 -79 -172 -79 -182 0 -5 -9
-27 -19 -47 -30 -56 -61 -126 -61 -137 0 -5 -8 -25 -19 -44 -10 -19 -22 -46
-26 -60 -4 -14 -24 -61 -45 -105 -21 -44 -51 -111 -65 -150 -15 -38 -31 -74
-35 -80 -4 -5 -10 -23 -14 -40 -4 -16 -22 -61 -41 -100 -18 -38 -36 -82 -39
-97 -11 -49 -43 -36 -72 30 -15 31 -42 90 -60 130 -19 40 -34 78 -34 85 0 6
-11 34 -24 62 -50 103 -66 142 -66 157 0 9 -7 21 -15 28 -8 6 -17 22 -21 33
-10 36 -52 140 -68 172 -9 17 -16 33 -16 37 0 4 -18 44 -40 90 -22 46 -40 88
-40 94 0 18 -52 128 -64 136 -6 4 -64 8 -129 8 -94 0 -119 -3 -123 -15z M7802
3592 c-10 -7 -12 -156 -10 -713 l3 -704 125 0 125 0 3 704 c2 557 0 706 -10
713 -7 4 -60 8 -118 8 -58 0 -111 -4 -118 -8z M8805 3584 c-22 -8 -60 -22 -85
-30 -73 -23 -179 -102 -247 -184 -35 -41 -66 -84 -69 -95 -4 -11 -12 -27 -19
-35 -29 -33 -61 -165 -78 -320 -8 -70 48 -343 77 -380 7 -8 25 -36 40 -63 36
-64 128 -161 191 -201 71 -47 100 -61 180 -88 64 -21 87 -23 270 -23 191 0
203 2 275 27 76 28 121 49 175 83 36 22 145 131 145 144 0 5 -12 19 -27 31
-103 79 -148 110 -161 110 -7 0 -32 -15 -55 -34 -23 -19 -68 -48 -100 -66
l-59 -32 -186 -1 c-150 -2 -192 1 -214 13 -15 8 -47 26 -72 38 -104 53 -211
220 -186 288 l10 24 599 0 c691 0 621 -12 621 110 0 113 -60 339 -102 386 -10
11 -18 23 -18 27 0 12 -46 72 -87 114 -73 74 -178 133 -293 163 -19 5 -136 9
-260 9 -176 0 -234 -3 -265 -15z m501 -242 c92 -41 152 -97 196 -179 22 -41
34 -108 20 -117 -18 -11 -458 -17 -690 -10 -177 5 -225 10 -229 21 -6 15 40
127 60 148 7 7 25 27 40 44 14 17 59 49 99 71 l73 39 196 1 c168 0 203 -3 235
-18z M10550 3591 c-71 -16 -147 -47 -204 -86 -77 -51 -188 -163 -215 -217 -12
-24 -28 -54 -36 -68 -8 -14 -15 -33 -15 -43 0 -11 -7 -42 -15 -71 -13 -43 -15
-123 -13 -491 l3 -440 125 0 125 0 5 440 c5 405 7 444 24 485 28 65 94 148
146 185 43 30 148 71 200 77 l25 3 0 115 0 115 -60 2 c-33 0 -76 -2 -95 -6z" fill="#0F172A" fill-rule="evenodd"/></g>
<g transform="translate(0.000000,572.000000) scale(0.100000,-0.100000)"><path d="M1680 3635 c-20 -24 -3 -141 28 -195 71 -124 100 -140 252 -140 63 0
186 -5 273 -10 165 -10 181 -14 297 -81 81 -46 230 -198 230 -235 0 -6 8 -22
18 -35 40 -52 57 -145 57 -304 0 -163 0 -163 -68 -305 -59 -121 -159 -220
-288 -283 -52 -25 -107 -49 -124 -52 -16 -4 -120 -10 -229 -14 l-200 -6 -23
-80 c-21 -71 -44 -122 -92 -206 -8 -14 -11 -34 -7 -44 6 -17 23 -17 299 -13
239 5 300 9 337 22 25 9 65 23 90 31 65 19 116 39 131 51 8 6 40 25 72 43 99
56 271 232 315 321 6 14 16 32 22 40 5 8 26 49 45 90 57 119 75 204 82 380 5
145 3 162 -22 265 -15 61 -31 115 -36 121 -5 6 -15 30 -24 53 -8 24 -28 63
-45 87 -16 25 -30 48 -30 51 0 16 -92 126 -163 195 -72 70 -198 155 -272 184
-16 6 -59 24 -95 38 -88 37 -188 45 -531 46 -242 0 -288 -2 -299 -15z M1129
2286 c-70 -16 -113 -42 -171 -104 -58 -62 -66 -77 -82 -163 -17 -89 -1 -195
37 -255 91 -144 283 -202 442 -134 66 28 151 111 182 179 23 49 25 64 21 150
-6 110 -24 160 -84 223 -56 60 -111 90 -189 105 -81 15 -82 15 -156 -1z M4884
1681 c-19 -4 -43 -20 -60 -40 -25 -30 -29 -44 -29 -93 0 -49 4 -61 26 -84 42
-42 147 -49 170 -12 14 22 -1 28 -65 28 -35 0 -67 5 -74 12 -7 7 -12 36 -12
65 0 69 25 89 100 79 40 -5 50 -4 50 7 0 30 -51 48 -106 38z M5729 1683 c-16
-2 -40 -21 -60 -46 -28 -34 -34 -51 -34 -88 0 -113 150 -166 228 -79 22 25 27
39 27 85 0 49 -4 59 -32 89 -34 35 -75 47 -129 39z m102 -65 c15 -23 10 -105
-7 -122 -21 -21 -92 -21 -116 1 -12 11 -18 30 -18 59 0 57 36 88 94 81 21 -3
43 -11 47 -19z M6533 1683 c-12 -2 -38 -22 -57 -44 -46 -50 -50 -107 -11 -160
31 -41 45 -47 111 -48 44 -1 54 3 81 32 94 98 9 249 -124 220z m70 -52 c35
-13 50 -61 34 -109 -11 -34 -15 -37 -55 -40 -65 -5 -92 17 -92 73 0 35 5 47
26 64 29 23 50 26 87 12z M6970 1683 c-25 -9 -68 -54 -80 -84 -18 -42 -4 -93
35 -135 34 -36 36 -36 99 -32 77 5 96 18 96 68 0 45 -18 62 -61 58 -40 -4 -49
-23 -14 -32 28 -7 35 -40 9 -50 -32 -12 -63 -5 -93 20 -68 57 -18 149 78 142
37 -2 46 0 49 14 6 29 -70 48 -118 31z M8243 1683 c-13 -3 -25 -14 -28 -26 -7
-29 0 -205 8 -213 12 -12 37 5 37 25 0 29 27 51 63 51 42 0 74 23 82 59 7 34
-15 85 -42 96 -23 8 -91 13 -120 8z m91 -49 c10 -4 16 -18 16 -35 0 -22 -6
-30 -24 -35 -51 -12 -90 41 -48 65 20 12 34 13 56 5z M9018 1683 c-21 -5 -20
3 -20 -131 -1 -65 3 -107 11 -115 16 -16 29 1 33 43 3 30 7 35 28 35 19 0 30
-10 45 -37 18 -35 42 -48 58 -31 4 3 0 17 -9 30 -17 27 -12 74 12 94 19 16 18
32 -7 73 -19 32 -25 36 -64 36 -24 0 -49 2 -57 4 -7 2 -21 2 -30 -1z m103 -53
c44 -24 8 -75 -49 -68 -19 2 -28 9 -30 26 -7 44 34 66 79 42z M12124 1676
c-36 -16 -57 -62 -42 -90 5 -9 33 -27 62 -40 30 -13 57 -29 61 -36 11 -18 -25
-43 -50 -35 -57 19 -75 18 -75 -4 0 -28 29 -41 90 -41 42 0 55 4 75 26 14 15
25 35 25 46 0 27 -44 68 -73 68 -35 0 -72 32 -63 55 5 15 14 17 52 11 35 -4
46 -2 51 10 3 8 2 19 -3 24 -17 17 -79 20 -110 6z M4025 1670 c-3 -5 11 -17
32 -27 l38 -18 0 -85 c0 -73 2 -85 18 -88 13 -3 17 4 17 30 0 18 3 57 7 86 5
45 10 55 34 68 16 8 29 21 29 29 0 12 -17 15 -84 15 -47 0 -88 -4 -91 -10z
M4433 1668 c-15 -19 -16 -207 -2 -224 17 -21 148 -19 156 2 8 21 -16 36 -48
30 -37 -7 -68 17 -53 41 6 10 23 19 38 21 32 4 35 22 3 22 -13 0 -34 11 -46
24 -20 22 -21 25 -6 40 9 9 33 16 53 16 43 0 68 13 58 29 -10 16 -141 14 -153
-1z M5227 1673 c-4 -3 -7 -55 -7 -115 0 -83 3 -109 13 -106 6 3 16 28 20 56 7
45 12 52 32 52 17 0 31 -14 56 -55 34 -56 73 -81 89 -56 12 21 12 219 0 226
-22 14 -35 -15 -32 -74 5 -98 -15 -91 -106 34 -31 42 -50 54 -65 38z M7656
1664 c-9 -8 -16 -22 -16 -30 0 -20 -57 -141 -70 -149 -13 -8 -13 -42 1 -51 6
-3 23 6 38 20 36 34 123 38 143 6 7 -11 18 -20 25 -20 20 0 25 20 11 43 -8 12
-20 41 -26 63 -7 23 -18 44 -26 47 -7 3 -16 21 -20 40 -4 19 -14 38 -22 41
-21 8 -20 8 -38 -10z m52 -106 c-3 -29 -6 -33 -33 -33 -25 0 -31 4 -33 27 -3
27 7 34 51 37 15 1 18 -5 15 -31z M8648 1655 c-14 -30 3 -55 38 -55 20 0 24 5
24 28 0 52 -42 70 -62 27z M9460 1648 c-11 -18 -20 -37 -20 -41 0 -5 -6 -23
-14 -40 -24 -53 -46 -109 -46 -118 0 -15 26 -10 53 11 37 29 97 27 125 -5 42
-48 57 -3 22 65 -11 22 -20 48 -20 59 0 11 -5 23 -10 26 -6 4 -17 22 -25 41
-18 43 -40 43 -65 2z m64 -79 c7 -30 -13 -53 -41 -47 -26 5 -27 30 -2 62 23
30 33 26 43 -15z M10109 1643 c-44 -73 -83 -203 -62 -203 6 0 18 9 28 20 13
15 31 20 66 20 38 0 51 -4 59 -20 14 -26 50 -27 50 -1 0 10 -11 39 -25 65 -14
26 -25 54 -25 62 0 25 -40 94 -54 94 -8 0 -24 -17 -37 -37z m53 -67 c14 -31 4
-56 -21 -56 -28 0 -35 17 -21 51 15 35 27 37 42 5z M10457 1673 c-4 -3 -7 -57
-7 -120 0 -106 1 -113 20 -113 15 0 20 7 20 28 0 62 49 70 81 12 22 -39 43
-55 60 -44 15 9 10 30 -10 48 -20 18 -18 48 5 67 19 15 18 79 -2 107 -13 19
-24 22 -88 22 -40 0 -76 -3 -79 -7z m133 -48 c7 -8 10 -25 6 -40 -5 -20 -13
-25 -37 -25 -41 0 -69 16 -69 41 0 34 76 52 100 24z M10865 1669 c-12 -18 -15
-200 -4 -220 8 -16 21 -19 74 -19 72 0 95 6 95 25 0 17 -32 27 -62 20 -13 -3
-31 0 -43 9 -27 20 -9 50 34 54 20 2 31 9 31 19 0 11 -7 14 -25 11 -17 -4 -31
2 -46 18 -31 33 -12 52 54 56 38 2 52 7 52 18 0 12 -16 16 -77 18 -49 2 -79
-1 -83 -9z M11239 1673 c-5 -36 -7 -202 -3 -215 3 -10 14 -18 25 -18 17 0 19
7 19 58 0 31 5 64 10 72 11 16 27 1 74 -70 63 -96 83 -82 82 56 -1 95 -3 109
-18 112 -16 3 -18 -5 -18 -56 0 -46 -4 -61 -16 -66 -19 -7 -34 1 -34 19 0 24
-79 115 -100 115 -11 0 -20 -3 -21 -7z M11754 1672 c-18 -11 -34 -49 -34 -76
0 -31 3 -31 36 -10 31 21 47 8 42 -32 -2 -23 -9 -30 -29 -32 -14 -2 -31 4 -39
12 -7 9 -18 16 -25 16 -14 0 -47 -89 -39 -102 3 -5 20 0 38 12 21 12 51 20 78
20 38 0 46 -4 57 -26 12 -28 34 -28 39 0 2 9 -6 36 -17 59 -12 24 -21 51 -21
60 0 9 -9 22 -19 29 -11 8 -21 27 -23 43 -3 30 -23 42 -44 27z M6107 1663 c-2
-4 -5 -53 -6 -109 -2 -120 3 -127 81 -122 41 2 54 7 56 21 3 13 -4 17 -31 17
-52 0 -66 23 -69 114 -2 49 -7 81 -15 83 -6 2 -13 0 -16 -4z M7327 1663 c-2
-5 -5 -53 -6 -109 -1 -76 2 -104 12 -113 27 -22 35 9 29 122 -3 79 -8 107 -18
107 -7 0 -15 -3 -17 -7z M8591 1520 c-23 -48 -28 -66 -20 -76 9 -11 17 -9 41
11 38 32 108 35 138 5 38 -38 53 -17 25 36 -8 16 -15 36 -15 45 0 16 -19 39
-32 39 -4 0 -8 -7 -8 -15 0 -23 -37 -55 -56 -48 -9 3 -22 19 -29 36 l-12 29
-32 -62z" fill="#A3E635" fill-rule="evenodd"/></g>
</g>
</svg>